<?xml version="1.0" encoding="utf-8"?>
<!-- Generator: Adobe Illustrator 21.0.2, SVG Export Plug-In . SVG Version: 6.00 Build 0)  -->
<svg version="1.1" xmlns="http://www.w3.org/2000/svg" xmlns:xlink="http://www.w3.org/1999/xlink" x="0px" y="0px"
	 viewBox="0 0 25.8 25.8" style="enable-background:new 0 0 25.8 25.8;" xml:space="preserve">
<style type="text/css">
	.st0{fill:#F2F2F2;}
	.st1{fill:#F8FBFC;}
</style>
<g id="outer">
</g>
<g id="middle">
</g>
<g id="inner">
	<g>
		<path class="st0" d="M12.9,0.2c-7,0-12.7,5.7-12.7,12.7s5.7,12.7,12.7,12.7c7,0,12.7-5.7,12.7-12.7S19.9,0.2,12.9,0.2z"/>
		<g>
			<g>
				<path class="st1" d="M17.1,7.1h1c0.5,0,0.7,0.2,0.8,0.6c0,0.2,0.1,3.5,0.1,4V13c0,1,0,4.9-0.1,5.2c-0.1,0.5-0.5,0.5-0.8,0.5
					h-0.7c-0.1,0-0.1,0-0.1,0.1v0.5c0,0.1,0,0.1,0.1,0.1c0.2,0,1-0.1,2.8-0.1c1.7,0,2.5,0.1,2.7,0.1c0.1,0,0.2,0,0.2-0.1v-0.5
					c0-0.1-0.1-0.1-0.1-0.1h-0.8c-0.4,0-0.7-0.1-0.7-0.7c0-0.2,0-4.4,0-4.6V12c0-0.2,0-4.3,0-4.4c0-0.3,0.3-0.5,0.7-0.5h0.7
					c0.1,0,0.1,0,0.1-0.1V6.5c0-0.1,0-0.2-0.1-0.2c-0.3,0-0.8,0.1-2.6,0.1c-1.8,0-2.7-0.1-3-0.1c-0.1,0-0.1,0-0.1,0.1V7
					C16.9,7,17,7.1,17.1,7.1z"/>
				<path class="st1" d="M5.8,19.4c2,0,2.6,0.1,2.8,0.1c0.1,0,0.1-0.1,0.1-0.2v-0.4c0-0.1,0-0.1-0.1-0.1h-1c-0.3,0-0.5-0.2-0.6-0.6
					c0-0.2,0-2.7,0-3.6v-0.8c0.5,0.1,1,0.1,1.6,0.1c2.4,0,3.9-0.8,4.6-2.2c0-0.1,0.1-0.1,0.1-0.2c0.2-0.5,0.7-0.8,1.2-0.8
					c0.3,0,0.6,0.1,0.8,0.3c0.3,0.3,0.5,0.7,0.5,1.2c0,1.1-0.7,1.7-1.7,1.9c-0.1,0-0.2,0.1-0.2,0.2c0,0.2,0,0.2,0.3,0.2
					c1.2,0.3,1.9,1.1,1.9,2.4c0,0.9-0.7,1.8-1.7,1.8c-0.8,0-1-0.3-1.1-0.5c-0.1-0.2-0.2-0.7-0.8-0.7c-0.3,0-0.5,0.2-0.5,0.7
					c0,0.4,0.5,1.1,2.1,1.1c2.1,0,3.7-1.4,3.7-3c0-1.2-1.1-2.1-2.1-2.3c0.8-0.5,1.6-1.2,1.6-2.3c0-0.8-0.7-1.8-2.2-1.8
					c-0.7,0-1.2,0.2-1.6,0.5c0,0,0,0,0-0.1c0-1.1-0.5-2.2-1.4-2.8C11,6.6,10,6.4,7.8,6.4c-0.6,0-1.7,0.1-2,0.1
					C3.9,6.4,3.3,6.4,3,6.4c-0.1,0-0.1,0-0.1,0.1V7c0,0.1,0,0.1,0.1,0.1h1c0.4,0,0.6,0.1,0.6,0.4c0,0.2,0,2.1,0,3.4V13
					c0,2.1,0,5-0.1,5.2c-0.1,0.5-0.2,0.6-0.8,0.6H3.2c-0.1,0-0.1,0-0.1,0.1v0.5c0,0.1,0,0.1,0.1,0.1C3.4,19.4,4.1,19.4,5.8,19.4z
					 M7,7.1C7.3,7,7.7,7,8,7c0.9,0,2.9,0.6,2.9,3.1c0,0.7-0.1,1.4-0.4,1.9c-0.4,0.6-1.4,1.2-2.2,1.2c-0.5,0-1,0-1.3-0.1V7.1z"/>
			</g>
		</g>
	</g>
</g>
</svg>
